<svg viewBox="0 0 297 80">
    <g>
        <style>
            .animated-signature path {
            stroke-dasharray: 2400;
            stroke-dashoffset: 2400;
            fill: transparent;
            animation: drawSignature 8s linear infinite both;
            stroke-width: 2px;
            stroke: black;
            }
            @keyframes drawSignature {
            0% { stroke-dashoffset: 2400; }
            15% { fill: transparent; }
            35%, 75% { stroke-dashoffset: 0; fill: black; }
            90%, to { stroke-dashoffset: 2400; fill: transparent; }
            }
        </style>
        <path class="animated-signature" d="M 114.844 11.865 A 117.44 117.44 0 0 0 113.201 14.344 Q 112.487 15.448 111.726 16.672 A 210.129 210.129 0 0 0 110.157 19.238 Q 107.569 23.535 104.639 28.858 A 169.35 169.35 0 0 0 100.945 35.838 A 192.913 192.913 0 0 0 99.732 38.306 Q 97.315 43.311 95.118 48.218 A 353.895 353.895 0 0 0 93.006 53.027 A 306.294 306.294 0 0 0 91.065 57.642 A 931.726 931.726 0 0 0 89.535 61.388 Q 88.842 63.095 88.236 64.611 A 511.764 511.764 0 0 0 87.842 65.601 Q 86.475 69.043 85.694 71.118 A 472.777 472.777 0 0 0 85.511 71.605 Q 84.913 73.2 84.913 73.242 A 2.24 2.24 0 0 1 84.542 73.873 Q 84.101 74.389 83.369 74.454 A 2.442 2.442 0 0 1 83.155 74.463 A 1.684 1.684 0 0 1 82.032 74.048 A 1.903 1.903 0 0 1 81.397 72.998 A 0.41 0.41 0 0 0 81.39 72.955 Q 81.346 72.734 81.044 71.408 A 652.626 652.626 0 0 0 80.933 70.923 A 2558.864 2558.864 0 0 0 80.681 69.824 Q 80.401 68.603 80.037 67.019 A 8164.134 8164.134 0 0 0 79.688 65.503 Q 79.017 62.587 78.183 58.913 A 3194.581 3194.581 0 0 1 77.906 57.691 A 5062.794 5062.794 0 0 0 76.349 50.842 A 5744.413 5744.413 0 0 0 75.806 48.462 A 14939.867 14939.867 0 0 1 73.584 38.721 Q 72.461 33.789 71.485 29.346 A 224.843 224.843 0 0 1 68.31 37.788 Q 66.617 42.016 64.917 45.679 Q 61.621 52.783 58.155 58.032 A 61.1 61.1 0 0 1 54.661 62.826 A 44.897 44.897 0 0 1 51.001 66.846 A 37.407 37.407 0 0 1 46.138 70.842 A 31.66 31.66 0 0 1 43.287 72.583 A 31.222 31.222 0 0 1 34.839 75.684 A 44.119 44.119 0 0 1 27.622 76.567 A 50.7 50.7 0 0 1 25.489 76.611 A 26.124 26.124 0 0 1 22.224 76.398 A 32.538 32.538 0 0 1 20.069 76.05 A 29.86 29.86 0 0 1 14.356 74.317 A 30.13 30.13 0 0 1 8.936 71.387 A 21.936 21.936 0 0 1 4.346 67.212 A 19.413 19.413 0 0 1 1.172 61.743 A 17.547 17.547 0 0 1 0.139 57.433 A 21.971 21.971 0 0 1 0 54.932 Q 0 50.977 1.661 47.681 A 17.67 17.67 0 0 1 6.153 42.017 Q 8.985 39.649 12.72 38.33 Q 16.455 37.012 20.606 37.012 A 30.72 30.72 0 0 1 23.47 37.139 A 22.618 22.618 0 0 1 26.05 37.525 A 27.679 27.679 0 0 1 28.323 38.103 A 20.337 20.337 0 0 1 30.323 38.818 Q 32.117 39.574 33.408 40.466 A 12.246 12.246 0 0 1 33.496 40.527 Q 34.815 41.455 35.694 42.236 A 13.983 13.983 0 0 1 36.195 42.703 Q 36.695 43.193 36.963 43.579 A 19.377 19.377 0 0 0 37.056 43.711 Q 37.35 44.127 37.4 44.14 A 0.012 0.012 0 0 0 37.403 44.141 Q 37.696 44.678 37.696 45.166 A 1.8 1.8 0 0 1 37.383 46.175 A 2.422 2.422 0 0 1 37.183 46.436 A 1.677 1.677 0 0 1 35.955 47.019 A 2.261 2.261 0 0 1 35.84 47.022 A 1.788 1.788 0 0 1 34.455 46.414 A 2.36 2.36 0 0 1 34.278 46.192 A 0.776 0.776 0 0 1 34.255 46.167 Q 34.137 46.036 33.496 45.288 Q 32.835 44.516 31.416 43.605 A 20.835 20.835 0 0 0 31.104 43.408 A 14.223 14.223 0 0 0 29.598 42.607 Q 28.383 42.046 26.831 41.553 A 16.101 16.101 0 0 0 24.423 41 Q 23.192 40.809 21.78 40.75 A 31.336 31.336 0 0 0 20.459 40.723 A 19.896 19.896 0 0 0 14.565 41.585 A 18.748 18.748 0 0 0 13.99 41.773 A 17.242 17.242 0 0 0 10.084 43.671 A 15.386 15.386 0 0 0 8.667 44.727 A 14.483 14.483 0 0 0 5.054 49.243 A 12.272 12.272 0 0 0 3.717 54.592 A 14.327 14.327 0 0 0 3.711 54.981 A 16.031 16.031 0 0 0 4.073 58.444 A 13.519 13.519 0 0 0 4.737 60.596 Q 5.762 63.135 7.471 65.137 A 18.342 18.342 0 0 0 11.426 68.604 Q 13.672 70.068 16.114 71.021 A 27.463 27.463 0 0 0 21.021 72.437 Q 23.487 72.9 25.684 72.9 A 46.218 46.218 0 0 0 32.935 72.339 A 27.109 27.109 0 0 0 39.864 70.239 A 30.026 30.026 0 0 0 39.917 70.215 A 28.563 28.563 0 0 0 44.383 67.659 A 34.904 34.904 0 0 0 46.68 65.918 A 33.381 33.381 0 0 0 49.782 62.99 Q 51.534 61.124 53.272 58.789 A 63.045 63.045 0 0 0 56.323 54.272 Q 57.827 51.836 59.316 49.01 A 106.579 106.579 0 0 0 59.742 48.193 A 116.092 116.092 0 0 0 62.545 42.338 Q 63.899 39.307 65.257 35.876 A 200.021 200.021 0 0 0 66.163 33.545 Q 67.139 31.006 68.067 28.076 A 611.733 611.733 0 0 1 69.971 22.168 Q 69.4 19.214 69.049 16.86 A 73.382 73.382 0 0 1 68.775 14.844 A 64.239 64.239 0 0 1 68.566 12.884 Q 68.487 12.006 68.448 11.239 A 27.877 27.877 0 0 1 68.409 9.815 Q 68.409 7.727 68.731 6.47 A 6.343 6.343 0 0 1 68.75 6.397 A 8.101 8.101 0 0 1 68.996 5.629 Q 69.136 5.259 69.3 4.962 A 3.319 3.319 0 0 1 69.629 4.468 A 3.077 3.077 0 0 1 70.041 4.046 Q 70.312 3.82 70.604 3.704 A 1.771 1.771 0 0 1 70.801 3.638 A 5.013 5.013 0 0 1 71.576 3.491 A 4.23 4.23 0 0 1 72.022 3.467 A 2.923 2.923 0 0 1 72.498 3.508 Q 72.791 3.557 73.121 3.662 A 1.965 1.965 0 0 1 73.739 3.999 Q 74.002 4.206 74.244 4.517 A 3.513 3.513 0 0 1 74.59 5.069 Q 74.735 5.351 74.862 5.695 A 8.708 8.708 0 0 1 75.098 6.445 A 8.241 8.241 0 0 1 75.291 7.41 Q 75.439 8.437 75.44 9.841 A 26.607 26.607 0 0 1 75.44 9.863 A 30.53 30.53 0 0 1 75.356 12.054 Q 75.275 13.178 75.115 14.433 A 55.206 55.206 0 0 1 75 15.283 A 65.815 65.815 0 0 1 74.451 18.518 A 89.455 89.455 0 0 1 73.682 22.07 A 452.522 452.522 0 0 0 74.366 25.22 A 619.15 619.15 0 0 0 75.147 28.711 Q 75.977 32.373 76.856 36.304 Q 77.735 40.234 78.663 44.336 A 7249.384 7249.384 0 0 1 80.469 52.344 A 8119.169 8119.169 0 0 0 81.746 58.011 A 7068.789 7068.789 0 0 0 82.154 59.815 A 729.084 729.084 0 0 0 82.929 63.208 A 532.099 532.099 0 0 0 83.643 66.26 A 1032.596 1032.596 0 0 1 84.714 63.574 Q 85.675 61.173 86.866 58.228 A 304.629 304.629 0 0 1 88.88 53.369 A 370.685 370.685 0 0 1 91.114 48.218 A 433.747 433.747 0 0 1 96.07 37.427 A 181.085 181.085 0 0 1 100.057 29.53 A 159.739 159.739 0 0 1 101.416 27.051 A 266.874 266.874 0 0 1 104.22 22.129 Q 106.482 18.259 108.496 15.161 A 296.235 296.235 0 0 1 110.053 12.792 Q 112.305 9.4 114.063 6.983 A 144.791 144.791 0 0 1 115.172 5.476 Q 116.252 4.032 117.065 3.035 A 32.219 32.219 0 0 1 117.749 2.222 Q 119.092 0.684 119.19 0.537 A 1.789 1.789 0 0 1 120.484 0 A 2.255 2.255 0 0 1 120.508 0 A 1.991 1.991 0 0 1 121.147 0.098 A 1.657 1.657 0 0 1 121.851 0.562 Q 122.364 1.123 122.364 1.856 A 1.686 1.686 0 0 1 122.259 2.432 A 1.983 1.983 0 0 1 122.217 2.539 A 0.169 0.169 0 0 1 122.208 2.572 Q 122.147 2.762 121.656 3.98 A 51.757 51.757 0 0 0 121.357 4.739 Q 121.029 5.589 120.624 6.712 A 172.496 172.496 0 0 0 120.24 7.788 Q 119.385 10.205 118.36 13.452 A 135.291 135.291 0 0 0 117.097 17.702 A 163.163 163.163 0 0 0 116.358 20.435 Q 115.381 24.17 114.624 28.247 Q 113.868 32.324 113.526 36.377 A 123.126 123.126 0 0 0 113.334 39.256 A 139.973 139.973 0 0 0 113.282 40.259 A 84.688 84.688 0 0 0 113.184 44.336 A 72.778 72.778 0 0 0 113.477 50.83 A 48.273 48.273 0 0 0 114.37 56.75 A 44.508 44.508 0 0 0 114.454 57.129 Q 115.137 60.156 116.309 62.817 A 19.727 19.727 0 0 0 118.15 66.13 A 17.106 17.106 0 0 0 119.19 67.481 Q 120.899 69.483 123.267 70.703 Q 125.635 71.924 128.76 72.022 A 1.718 1.718 0 0 1 129.443 72.201 A 1.646 1.646 0 0 1 130.005 72.681 A 2.369 2.369 0 0 1 130.342 73.279 A 1.96 1.96 0 0 1 130.469 73.975 A 1.632 1.632 0 0 1 130.074 75.039 A 2.215 2.215 0 0 1 129.932 75.195 A 1.836 1.836 0 0 1 129.326 75.607 A 1.74 1.74 0 0 1 128.663 75.733 A 8.462 8.462 0 0 1 127.1 75.586 A 18.834 18.834 0 0 1 123.455 74.721 A 15.333 15.333 0 0 1 120.899 73.56 A 17.6 17.6 0 0 1 116.26 69.751 Q 114.307 67.481 113.013 64.575 A 34.462 34.462 0 0 1 111.141 59.173 A 38.561 38.561 0 0 1 110.938 58.35 A 48.905 48.905 0 0 1 109.849 51.553 A 53.391 53.391 0 0 1 109.839 51.441 A 82.275 82.275 0 0 1 109.522 44.19 A 86.333 86.333 0 0 1 109.961 35.498 Q 110.401 31.152 111.133 27.026 Q 111.866 22.9 112.842 19.043 A 156.401 156.401 0 0 1 114.082 14.431 A 127.501 127.501 0 0 1 114.844 11.865 Z M 275.879 10.742 L 276.954 10.742 A 1.833 1.833 0 0 1 278.028 11.084 Q 278.516 11.426 278.76 11.963 Q 278.853 12.336 278.858 12.575 A 1.271 1.271 0 0 1 278.858 12.598 A 2.057 2.057 0 0 1 278.771 13.211 A 1.556 1.556 0 0 1 278.125 14.063 A 12362.94 12362.94 0 0 1 273.236 17.841 A 14812.327 14812.327 0 0 1 268.042 21.851 A 1318.417 1318.417 0 0 0 257.154 30.347 A 12467.735 12467.735 0 0 0 246.021 39.136 A 1267.182 1267.182 0 0 0 235.86 47.25 A 1158.728 1158.728 0 0 0 235.205 47.778 A 1079.526 1079.526 0 0 0 227.657 53.935 A 937.479 937.479 0 0 0 225.269 55.908 A 942.82 942.82 0 0 0 220.783 59.65 A 697.623 697.623 0 0 0 216.748 63.062 Q 214.13 65.294 212.019 67.18 A 171.816 171.816 0 0 0 210.205 68.823 A 104.589 104.589 0 0 0 208.93 70.015 Q 207.154 71.704 206.202 72.803 A 204.132 204.132 0 0 0 207.399 72.617 Q 209.181 72.335 211.55 71.933 A 594.88 594.88 0 0 0 211.89 71.875 Q 214.257 71.472 217.235 71.104 A 188.152 188.152 0 0 1 220.069 70.776 Q 224.805 70.264 230.787 69.873 A 176.856 176.856 0 0 1 237.091 69.58 A 236.398 236.398 0 0 1 244.043 69.483 A 188.044 188.044 0 0 1 252.941 69.702 A 227.224 227.224 0 0 1 258.619 70.044 A 178.239 178.239 0 0 1 268.459 71.046 A 220.622 220.622 0 0 1 275.196 72.022 A 1.892 1.892 0 0 1 275.9 72.263 A 1.786 1.786 0 0 1 276.319 72.608 A 1.691 1.691 0 0 1 276.758 73.779 A 2.113 2.113 0 0 1 276.633 74.518 A 1.883 1.883 0 0 1 276.221 75.171 A 1.749 1.749 0 0 1 274.951 75.732 A 2.143 2.143 0 0 1 274.903 75.733 Q 274.707 75.733 274.463 75.684 A 207.983 207.983 0 0 0 265.049 74.361 A 165.499 165.499 0 0 0 258.228 73.706 Q 250.684 73.145 243.995 73.145 A 209.687 209.687 0 0 0 236.937 73.259 A 174.349 174.349 0 0 0 232.959 73.438 A 329.491 329.491 0 0 0 227.991 73.755 A 254.512 254.512 0 0 0 223.438 74.121 A 216.389 216.389 0 0 0 219.434 74.517 Q 217.539 74.723 215.85 74.946 A 130.94 130.94 0 0 0 215.625 74.976 A 1374.122 1374.122 0 0 0 213.169 75.306 Q 211.243 75.568 209.717 75.781 Q 208.985 75.879 208.204 76.025 A 29.875 29.875 0 0 1 207.059 76.218 A 26.767 26.767 0 0 1 206.69 76.27 A 118.945 118.945 0 0 1 205.988 76.361 A 90.303 90.303 0 0 1 205.347 76.441 A 15.602 15.602 0 0 1 205.059 76.473 Q 204.747 76.504 204.523 76.512 A 3.896 3.896 0 0 1 204.395 76.514 A 3.84 3.84 0 0 1 202.899 76.225 A 3.675 3.675 0 0 1 202.295 75.903 A 1.991 1.991 0 0 1 201.395 74.441 A 3.052 3.052 0 0 1 201.368 74.024 A 3.266 3.266 0 0 1 201.498 73.128 A 4.196 4.196 0 0 1 201.685 72.608 Q 201.924 72.056 202.453 71.45 A 8.177 8.177 0 0 1 202.832 71.045 A 58.375 58.375 0 0 1 204.066 69.737 Q 204.65 69.135 205.324 68.467 A 127.4 127.4 0 0 1 206.763 67.066 Q 209.18 64.746 213.184 61.279 Q 214.762 59.903 216.801 58.192 A 405.126 405.126 0 0 1 218.75 56.567 A 1281.573 1281.573 0 0 1 222.174 53.742 A 1642.828 1642.828 0 0 1 225.904 50.684 Q 229.786 47.51 234.082 44.067 A 2719.099 2719.099 0 0 1 242.774 37.134 A 4100.056 4100.056 0 0 0 251.416 30.249 A 1086.952 1086.952 0 0 1 255.555 26.959 A 911.614 911.614 0 0 1 259.473 23.877 A 18445.972 18445.972 0 0 0 263.117 21.027 A 13892.573 13892.573 0 0 0 266.431 18.433 Q 269.58 15.967 271.729 14.307 A 141.171 141.171 0 0 1 261.158 13.208 A 290.053 290.053 0 0 1 250.635 11.524 A 567.549 567.549 0 0 1 240.528 9.619 A 684.847 684.847 0 0 0 235.724 8.685 A 578.433 578.433 0 0 0 231.177 7.837 A 201.993 201.993 0 0 0 226.911 7.105 A 159.882 159.882 0 0 0 222.95 6.519 A 64.095 64.095 0 0 0 219.785 6.168 Q 218.341 6.047 217.053 6.016 A 35.651 35.651 0 0 0 216.211 6.006 A 33.128 33.128 0 0 0 210.319 6.513 A 28.48 28.48 0 0 0 207.642 7.129 Q 203.663 8.252 200.708 10.352 Q 197.754 12.451 196.07 15.381 A 12.771 12.771 0 0 0 194.386 21.764 A 15.024 15.024 0 0 0 194.385 21.875 A 13.015 13.015 0 0 0 195.215 26.514 Q 196.045 28.711 197.73 30.371 A 11.452 11.452 0 0 0 200.696 32.463 A 13.91 13.91 0 0 0 201.88 32.984 Q 204.253 33.9 207.416 33.934 A 22.819 22.819 0 0 0 207.666 33.936 A 19.403 19.403 0 0 0 214.014 32.861 Q 217.139 31.787 219.825 29.688 A 2.14 2.14 0 0 1 220.339 29.407 A 1.739 1.739 0 0 1 220.948 29.297 A 1.862 1.862 0 0 1 222.242 29.81 A 1.666 1.666 0 0 1 222.801 31.019 A 2.114 2.114 0 0 1 222.803 31.104 A 2.02 2.02 0 0 1 222.692 31.787 A 1.715 1.715 0 0 1 222.12 32.568 A 23.243 23.243 0 0 1 215.21 36.328 A 23.304 23.304 0 0 1 207.666 37.598 Q 203.491 37.598 200.353 36.348 A 14.7 14.7 0 0 1 200.245 36.304 Q 197.071 35.01 194.947 32.861 Q 192.823 30.713 191.773 27.857 A 17.202 17.202 0 0 1 190.723 21.875 A 17.225 17.225 0 0 1 191.575 16.401 A 15.69 15.69 0 0 1 192.701 13.818 A 18.695 18.695 0 0 1 198.145 7.666 A 24.895 24.895 0 0 1 203.477 4.717 A 30.447 30.447 0 0 1 206.275 3.735 A 33.638 33.638 0 0 1 213.668 2.431 A 39.518 39.518 0 0 1 216.309 2.344 A 48.452 48.452 0 0 1 219.971 2.49 Q 221.87 2.635 223.958 2.921 A 77.864 77.864 0 0 1 224.024 2.93 A 195.704 195.704 0 0 1 229.553 3.777 A 237.941 237.941 0 0 1 233.081 4.395 A 595.555 595.555 0 0 1 240.543 5.809 A 681.448 681.448 0 0 1 243.14 6.323 A 371.384 371.384 0 0 0 253.858 8.301 A 245.563 245.563 0 0 0 264.869 9.912 A 115.069 115.069 0 0 0 275.879 10.742 Z M 314.847 67.59 A 40.346 40.346 0 0 0 315.235 67.003 A 6502.397 6502.397 0 0 0 315.235 68.359 L 315.235 71.436 Q 315.235 73.145 316.04 74.341 A 3.293 3.293 0 0 0 316.056 74.364 Q 316.861 75.537 318.36 75.537 Q 318.93 75.537 319.605 75.203 A 5.564 5.564 0 0 0 320.24 74.829 Q 320.994 74.32 321.736 73.118 A 13.48 13.48 0 0 0 322.315 72.07 Q 322.718 71.265 323.285 70.143 A 824.428 824.428 0 0 1 323.682 69.36 Q 324.512 67.725 325.538 65.918 A 174.17 174.17 0 0 1 327.662 62.28 A 43.898 43.898 0 0 1 328.623 60.748 A 34.871 34.871 0 0 1 329.859 58.984 A 24.016 24.016 0 0 1 330.253 58.474 Q 330.682 57.932 331.096 57.478 A 12.724 12.724 0 0 1 331.958 56.616 A 6.58 6.58 0 0 1 332.084 56.506 Q 332.646 56.024 333.137 55.835 A 1.68 1.68 0 0 1 333.741 55.713 Q 334.278 55.713 334.693 56.25 Q 335.108 56.787 335.108 58.301 A 11.531 11.531 0 0 1 335.101 58.693 Q 335.094 58.903 335.079 59.138 A 24.409 24.409 0 0 1 335.035 59.741 A 117.663 117.663 0 0 1 334.955 60.626 A 144.013 144.013 0 0 1 334.864 61.572 A 74.548 74.548 0 0 0 334.693 63.55 A 29.23 29.23 0 0 0 334.648 64.283 A 23.977 23.977 0 0 0 334.62 65.43 A 21.987 21.987 0 0 0 334.624 65.859 A 24.199 24.199 0 0 0 334.888 68.945 A 11.869 11.869 0 0 0 335.053 69.827 A 10.006 10.006 0 0 0 335.913 72.217 A 6.595 6.595 0 0 0 338.038 74.634 Q 338.935 75.259 340.21 75.474 A 8.684 8.684 0 0 0 341.651 75.586 A 7.82 7.82 0 0 0 345.386 74.634 A 13.9 13.9 0 0 0 345.636 74.497 A 14.862 14.862 0 0 0 348.706 72.192 A 24.369 24.369 0 0 0 351.514 68.945 A 50.273 50.273 0 0 0 352.493 67.541 A 40.346 40.346 0 0 0 352.79 67.094 A 17.067 17.067 0 0 0 353.247 69.605 A 12.594 12.594 0 0 0 353.633 70.816 A 10.239 10.239 0 0 0 354.956 73.291 Q 356.104 74.854 357.764 75.781 A 7.029 7.029 0 0 0 359.566 76.479 A 8.808 8.808 0 0 0 361.621 76.709 A 7.019 7.019 0 0 0 362.791 76.611 A 7.812 7.812 0 0 0 364.991 75.879 A 13.449 13.449 0 0 0 365.837 75.417 A 15.182 15.182 0 0 0 368.164 73.706 A 22.341 22.341 0 0 0 368.447 73.451 A 24.386 24.386 0 0 0 371.021 70.679 A 45.815 45.815 0 0 0 373.487 67.285 Q 374.61 65.576 375.489 63.965 Q 376.038 62.958 376.473 62.142 A 120.518 120.518 0 0 0 376.954 61.231 A 1.283 1.283 0 0 0 376.961 61.218 Q 377.149 60.88 377.149 60.4 A 1.752 1.752 0 0 0 376.982 59.653 A 2.213 2.213 0 0 0 376.636 59.131 A 1.715 1.715 0 0 0 376.096 58.71 A 1.698 1.698 0 0 0 375.342 58.545 A 1.836 1.836 0 0 0 374.366 58.814 Q 373.926 59.082 373.682 59.57 A 71.218 71.218 0 0 1 372.444 61.937 A 57.077 57.077 0 0 1 370.606 65.064 A 47.112 47.112 0 0 1 370.507 65.219 Q 368.995 67.585 367.505 69.287 Q 366.64 70.276 365.798 71.018 A 12.258 12.258 0 0 1 364.502 72.022 A 7.868 7.868 0 0 1 364.292 72.157 Q 363.725 72.51 363.173 72.714 A 4.304 4.304 0 0 1 361.67 72.998 A 5.017 5.017 0 0 1 360.957 72.946 A 6.132 6.132 0 0 1 359.937 72.705 A 3.105 3.105 0 0 1 359.803 72.658 Q 359.338 72.484 358.899 72.151 A 5.069 5.069 0 0 1 358.228 71.533 Q 357.718 70.977 357.326 70.137 A 9.227 9.227 0 0 1 356.91 69.067 A 8.927 8.927 0 0 1 356.618 67.858 Q 356.502 67.194 356.447 66.412 A 21.689 21.689 0 0 1 356.397 64.893 A 68.393 68.393 0 0 1 356.427 62.897 A 89.207 89.207 0 0 1 356.519 60.718 Q 356.641 58.447 356.812 56.421 A 4937.162 4937.162 0 0 0 356.914 55.209 Q 357.021 53.937 357.105 52.93 Q 357.204 51.74 357.223 51.323 A 3.592 3.592 0 0 0 357.227 51.172 A 1.914 1.914 0 0 0 356.739 49.878 A 1.932 1.932 0 0 0 356.669 49.802 A 1.54 1.54 0 0 0 355.518 49.317 A 2.399 2.399 0 0 0 355.188 49.338 A 1.725 1.725 0 0 0 354.175 49.829 Q 353.663 50.342 353.565 51.025 A 112.1 112.1 0 0 0 352.832 59.307 A 2.059 2.059 0 0 0 352.637 59.668 Q 352.344 60.291 351.914 61.147 A 118.01 118.01 0 0 1 351.612 61.743 A 32.324 32.324 0 0 1 351.108 62.691 A 38.831 38.831 0 0 1 350.147 64.331 A 30.372 30.372 0 0 1 349.936 64.667 A 33.588 33.588 0 0 1 348.291 67.017 Q 347.266 68.359 346.143 69.458 A 12.824 12.824 0 0 1 345.258 70.249 A 10.101 10.101 0 0 1 343.848 71.216 A 5.699 5.699 0 0 1 343.171 71.542 A 4.458 4.458 0 0 1 341.504 71.875 Q 340.479 71.875 339.844 71.314 Q 339.209 70.752 338.892 69.849 A 7.905 7.905 0 0 1 338.623 68.884 A 10.479 10.479 0 0 1 338.453 67.798 A 21.91 21.91 0 0 1 338.33 65.479 A 37.397 37.397 0 0 1 338.338 64.716 A 33.107 33.107 0 0 1 338.55 61.548 Q 338.701 60.256 338.748 59.321 A 15.486 15.486 0 0 0 338.77 58.545 Q 338.77 57.178 338.453 56.006 A 7.596 7.596 0 0 0 338.226 55.302 A 6.193 6.193 0 0 0 337.525 53.955 Q 336.914 53.076 335.962 52.564 A 4.14 4.14 0 0 0 334.861 52.164 A 5.337 5.337 0 0 0 333.741 52.051 Q 332.987 52.051 332.173 52.318 A 7.456 7.456 0 0 0 331.031 52.808 A 6.764 6.764 0 0 0 330.413 53.177 Q 329.824 53.571 329.24 54.126 A 13.101 13.101 0 0 0 328.174 55.274 A 44.682 44.682 0 0 0 327.998 55.494 A 48.841 48.841 0 0 0 325.44 59.033 A 81.611 81.611 0 0 0 322.95 63.062 A 138.886 138.886 0 0 0 322.659 63.567 A 125.291 125.291 0 0 0 320.752 67.017 A 94.233 94.233 0 0 0 319.788 68.878 A 72.567 72.567 0 0 0 318.946 70.606 L 318.897 68.311 L 318.897 66.602 L 318.897 64.307 L 318.897 61.865 L 318.897 59.766 Q 321.485 55.029 323.829 50.025 Q 326.172 45.02 327.93 39.746 Q 329.688 34.473 330.738 28.931 A 60.601 60.601 0 0 0 331.788 17.627 A 39.815 39.815 0 0 0 331.769 16.401 A 34.781 34.781 0 0 0 331.397 12.232 A 20.027 20.027 0 0 0 330.923 9.968 A 14.746 14.746 0 0 0 330.127 7.739 A 9.673 9.673 0 0 0 329.443 6.483 A 7.422 7.422 0 0 0 327.832 4.688 A 5.002 5.002 0 0 0 326.094 3.795 A 6.209 6.209 0 0 0 324.366 3.565 A 4.383 4.383 0 0 0 321.543 4.555 A 6.13 6.13 0 0 0 320.386 5.811 Q 318.799 8.057 317.774 12.183 A 45.023 45.023 0 0 0 317.321 14.211 Q 316.968 15.979 316.692 18.008 A 88.25 88.25 0 0 0 316.236 22.144 A 196.887 196.887 0 0 0 315.796 28.32 A 268.484 268.484 0 0 0 315.503 35.181 Q 315.284 42.383 315.259 50.757 A 5620.963 5620.963 0 0 0 315.241 59.317 A 1.967 1.967 0 0 0 315.039 59.668 A 83.015 83.015 0 0 1 314.746 60.281 Q 314.589 60.605 314.414 60.961 A 157.138 157.138 0 0 1 313.965 61.865 A 32.944 32.944 0 0 1 313.462 62.831 A 39.433 39.433 0 0 1 312.5 64.502 A 34.46 34.46 0 0 1 310.669 67.212 A 21.288 21.288 0 0 1 310.163 67.865 A 18.337 18.337 0 0 1 308.57 69.605 A 12.624 12.624 0 0 1 307.739 70.334 A 10.066 10.066 0 0 1 306.324 71.289 A 5.649 5.649 0 0 1 305.802 71.544 A 4.554 4.554 0 0 1 304.004 71.924 A 4.803 4.803 0 0 1 303.406 71.888 A 3.351 3.351 0 0 1 301.172 70.703 A 7.602 7.602 0 0 1 300.575 69.887 A 8.522 8.522 0 0 1 299.634 67.822 A 16.008 16.008 0 0 1 298.975 64.478 A 153.047 153.047 0 0 1 298.912 63.73 Q 298.817 62.576 298.78 61.865 A 1.851 1.851 0 0 0 298.615 61.218 A 2.107 2.107 0 0 0 298.218 60.645 A 2.121 2.121 0 0 0 298.121 60.549 A 1.575 1.575 0 0 0 297.022 60.108 Q 296.289 60.108 295.752 60.571 Q 295.215 61.035 295.118 61.719 A 21.42 21.42 0 0 1 295.073 62.034 Q 294.722 64.374 293.921 66.113 A 18.414 18.414 0 0 1 293.812 66.346 Q 293 68.046 292.017 69.19 A 10.503 10.503 0 0 1 291.955 69.261 Q 291.488 69.794 291.003 70.202 A 6.296 6.296 0 0 1 289.82 70.996 Q 288.672 71.582 287.793 71.582 A 5.935 5.935 0 0 1 287.652 71.58 Q 287.16 71.569 286.735 71.475 A 3.378 3.378 0 0 1 285.743 71.094 Q 284.913 70.606 284.424 69.824 A 5.006 5.006 0 0 1 284.39 69.769 A 5.232 5.232 0 0 1 283.741 68.091 A 9.337 9.337 0 0 1 283.545 66.211 A 18.4 18.4 0 0 1 283.546 66.025 Q 283.559 64.722 283.758 63.575 A 10.869 10.869 0 0 1 284.497 61.06 A 13.977 13.977 0 0 1 285.294 59.503 A 10.848 10.848 0 0 1 286.866 57.446 A 10.551 10.551 0 0 1 287.407 56.933 A 8.869 8.869 0 0 1 289.991 55.322 Q 291.7 54.639 293.213 54.639 A 9.53 9.53 0 0 1 293.245 54.639 Q 293.74 54.64 294.184 54.694 A 5.976 5.976 0 0 1 295.044 54.859 A 10.598 10.598 0 0 1 295.157 54.89 Q 295.891 55.099 296.436 55.371 Q 296.807 55.557 297.08 55.732 A 3.702 3.702 0 0 1 297.364 55.933 A 18.894 18.894 0 0 1 297.481 56.025 Q 297.723 56.219 297.803 56.299 A 1.819 1.819 0 0 0 298.345 56.678 A 1.872 1.872 0 0 0 299.121 56.836 Q 299.854 56.836 300.391 56.275 A 2.349 2.349 0 0 0 300.426 56.237 A 1.807 1.807 0 0 0 300.928 54.981 A 1.803 1.803 0 0 0 300.726 54.16 A 2.555 2.555 0 0 0 300.391 53.662 Q 300.348 53.619 299.969 53.296 A 123.791 123.791 0 0 0 299.854 53.198 A 3.846 3.846 0 0 0 299.843 53.189 Q 299.356 52.778 298.462 52.295 A 9.375 9.375 0 0 0 298.201 52.159 Q 297.38 51.748 296.289 51.392 A 8.016 8.016 0 0 0 295.218 51.123 A 9.649 9.649 0 0 0 293.506 50.977 A 11.083 11.083 0 0 0 291.363 51.191 A 13.892 13.892 0 0 0 288.843 51.953 Q 286.426 52.93 284.424 54.883 A 14.001 14.001 0 0 0 282.808 56.774 A 16.963 16.963 0 0 0 281.128 59.741 A 14.442 14.442 0 0 0 280.119 63.083 A 19.112 19.112 0 0 0 279.834 66.455 Q 279.834 68.359 280.396 69.971 A 9.848 9.848 0 0 0 280.563 70.416 A 8.468 8.468 0 0 0 281.983 72.778 Q 283.008 73.975 284.473 74.634 Q 285.938 75.293 287.745 75.293 A 6.951 6.951 0 0 0 290.488 74.709 A 9.832 9.832 0 0 0 292.334 73.657 A 12.903 12.903 0 0 0 294.346 71.872 A 15.95 15.95 0 0 0 296.289 69.238 A 12.381 12.381 0 0 0 296.541 69.948 A 10.286 10.286 0 0 0 299.097 73.779 A 6.5 6.5 0 0 0 301.326 75.162 A 7.323 7.323 0 0 0 303.858 75.586 A 8.057 8.057 0 0 0 307.666 74.634 A 15.449 15.449 0 0 0 311.036 72.217 A 22.31 22.31 0 0 0 313.868 68.994 A 50.273 50.273 0 0 0 314.847 67.59 Z M 171.045 61.133 A 65.683 65.683 0 0 0 170.94 61.345 Q 170.769 61.69 170.449 62.341 A 920.339 920.339 0 0 0 170.24 62.769 A 31.851 31.851 0 0 1 169.734 63.754 Q 169.445 64.294 169.105 64.89 A 59.1 59.1 0 0 1 168.677 65.625 A 40.346 40.346 0 0 1 167.435 67.59 A 50.273 50.273 0 0 1 166.455 68.994 A 22.31 22.31 0 0 1 163.623 72.217 A 15.449 15.449 0 0 1 160.254 74.634 A 8.057 8.057 0 0 1 156.446 75.586 A 7.323 7.323 0 0 1 153.914 75.162 A 6.5 6.5 0 0 1 151.685 73.779 A 10.286 10.286 0 0 1 149.129 69.948 A 12.381 12.381 0 0 1 148.877 69.238 A 15.95 15.95 0 0 1 146.934 71.872 A 12.903 12.903 0 0 1 144.922 73.657 A 9.832 9.832 0 0 1 143.076 74.709 A 6.951 6.951 0 0 1 140.332 75.293 Q 138.526 75.293 137.061 74.634 Q 135.596 73.975 134.571 72.778 A 8.468 8.468 0 0 1 133.151 70.416 A 9.848 9.848 0 0 1 132.984 69.971 Q 132.422 68.359 132.422 66.455 A 19.112 19.112 0 0 1 132.707 63.083 A 14.442 14.442 0 0 1 133.716 59.741 A 16.963 16.963 0 0 1 135.396 56.774 A 14.001 14.001 0 0 1 137.012 54.883 Q 139.014 52.93 141.431 51.953 A 13.892 13.892 0 0 1 143.951 51.191 A 11.083 11.083 0 0 1 146.094 50.977 A 9.649 9.649 0 0 1 147.806 51.123 A 8.016 8.016 0 0 1 148.877 51.392 Q 149.968 51.748 150.789 52.159 A 9.375 9.375 0 0 1 151.05 52.295 Q 151.944 52.778 152.431 53.189 A 3.846 3.846 0 0 1 152.442 53.198 A 123.791 123.791 0 0 1 152.557 53.296 Q 152.936 53.619 152.979 53.662 A 2.555 2.555 0 0 1 153.314 54.16 A 1.803 1.803 0 0 1 153.516 54.981 A 1.807 1.807 0 0 1 153.014 56.237 A 2.349 2.349 0 0 1 152.979 56.275 Q 152.442 56.836 151.709 56.836 A 1.872 1.872 0 0 1 150.933 56.678 A 1.819 1.819 0 0 1 150.391 56.299 Q 150.311 56.219 150.069 56.025 A 18.894 18.894 0 0 0 149.952 55.933 A 3.702 3.702 0 0 0 149.668 55.732 Q 149.395 55.557 149.024 55.371 Q 148.479 55.099 147.745 54.89 A 10.598 10.598 0 0 0 147.632 54.859 A 5.976 5.976 0 0 0 146.772 54.694 Q 146.328 54.64 145.833 54.639 A 9.53 9.53 0 0 0 145.801 54.639 Q 144.288 54.639 142.579 55.322 A 8.869 8.869 0 0 0 139.995 56.933 A 10.551 10.551 0 0 0 139.454 57.446 A 10.848 10.848 0 0 0 137.882 59.503 A 13.977 13.977 0 0 0 137.085 61.06 A 10.869 10.869 0 0 0 136.346 63.575 Q 136.147 64.722 136.134 66.025 A 18.4 18.4 0 0 0 136.133 66.211 A 9.337 9.337 0 0 0 136.329 68.091 A 5.232 5.232 0 0 0 136.978 69.769 A 5.006 5.006 0 0 0 137.012 69.824 Q 137.5 70.606 138.33 71.094 A 3.378 3.378 0 0 0 139.323 71.475 Q 139.748 71.569 140.24 71.58 A 5.935 5.935 0 0 0 140.381 71.582 Q 141.26 71.582 142.408 70.996 A 6.296 6.296 0 0 0 143.591 70.202 Q 144.076 69.794 144.543 69.261 A 10.503 10.503 0 0 0 144.605 69.19 Q 145.588 68.046 146.4 66.346 A 18.414 18.414 0 0 0 146.509 66.113 Q 147.31 64.374 147.661 62.034 A 21.42 21.42 0 0 0 147.705 61.719 Q 147.803 61.035 148.34 60.571 Q 148.877 60.108 149.61 60.108 A 1.575 1.575 0 0 1 150.708 60.549 A 2.121 2.121 0 0 1 150.806 60.645 A 2.107 2.107 0 0 1 151.203 61.218 A 1.851 1.851 0 0 1 151.368 61.865 Q 151.405 62.576 151.5 63.73 A 153.047 153.047 0 0 0 151.563 64.478 A 16.008 16.008 0 0 0 152.222 67.822 A 8.522 8.522 0 0 0 153.163 69.887 A 7.602 7.602 0 0 0 153.76 70.703 A 3.351 3.351 0 0 0 155.994 71.888 A 4.803 4.803 0 0 0 156.592 71.924 A 4.554 4.554 0 0 0 158.39 71.544 A 5.649 5.649 0 0 0 158.912 71.289 A 10.066 10.066 0 0 0 160.327 70.334 A 12.624 12.624 0 0 0 161.158 69.605 A 18.337 18.337 0 0 0 162.751 67.865 A 21.288 21.288 0 0 0 163.257 67.212 A 34.46 34.46 0 0 0 165.088 64.502 A 39.433 39.433 0 0 0 166.05 62.831 A 32.944 32.944 0 0 0 166.553 61.865 A 157.138 157.138 0 0 0 167.002 60.961 Q 167.177 60.605 167.334 60.281 A 83.015 83.015 0 0 0 167.627 59.668 A 1.967 1.967 0 0 1 168.004 59.107 A 1.794 1.794 0 0 1 168.335 58.838 Q 168.799 58.545 169.336 58.545 A 1.827 1.827 0 0 1 170.013 58.666 A 1.66 1.66 0 0 1 170.679 59.155 Q 171.192 59.766 171.192 60.449 A 1.686 1.686 0 0 1 171.088 61.026 A 1.983 1.983 0 0 1 171.045 61.133 Z M 318.946 52.588 Q 320.996 48.096 322.681 43.823 A 88.999 88.999 0 0 0 325.562 35.303 Q 326.758 31.055 327.442 26.685 A 58.113 58.113 0 0 0 328.115 18.757 A 64.694 64.694 0 0 0 328.125 17.578 Q 328.125 16.826 328.058 15.214 A 168.917 168.917 0 0 0 328.052 15.088 A 21.494 21.494 0 0 0 327.613 11.621 A 11.761 11.761 0 0 0 327.118 9.889 A 9.14 9.14 0 0 0 326.49 8.545 A 3.048 3.048 0 0 0 325.942 7.836 A 2.216 2.216 0 0 0 324.366 7.227 A 1.616 1.616 0 0 0 323.321 7.621 Q 323.068 7.829 322.836 8.146 A 4.614 4.614 0 0 0 322.51 8.667 A 10.549 10.549 0 0 0 321.974 9.835 Q 321.746 10.414 321.538 11.099 A 24.982 24.982 0 0 0 321.143 12.573 A 41.126 41.126 0 0 0 320.668 14.885 Q 320.386 16.47 320.166 18.311 Q 319.776 21.582 319.532 25.244 A 215.606 215.606 0 0 0 319.165 32.764 Q 319.043 36.621 318.995 40.259 A 563.626 563.626 0 0 0 318.958 43.781 A 459.374 459.374 0 0 0 318.946 47.07 L 318.946 52.588 Z M 360.119 38.473 A 4.376 4.376 0 0 0 360.596 36.426 A 4.997 4.997 0 0 0 360.596 36.354 A 4.374 4.374 0 0 0 360.254 34.692 Q 359.913 33.887 359.302 33.276 Q 358.692 32.666 357.886 32.324 Q 357.08 31.983 356.153 31.983 A 4.997 4.997 0 0 0 356.08 31.983 A 4.374 4.374 0 0 0 354.419 32.324 Q 353.614 32.666 353.003 33.276 Q 352.393 33.887 352.051 34.692 Q 351.709 35.498 351.709 36.426 A 5.282 5.282 0 0 0 351.71 36.484 A 4.28 4.28 0 0 0 353.003 39.575 A 4.469 4.469 0 0 0 354.106 40.392 A 4.376 4.376 0 0 0 356.153 40.869 A 5.282 5.282 0 0 0 356.211 40.869 A 4.28 4.28 0 0 0 359.302 39.575 A 4.469 4.469 0 0 0 360.119 38.473 Z M 357.862 36.426 A 1.631 1.631 0 0 0 357.382 35.263 A 2.141 2.141 0 0 0 357.349 35.23 A 1.787 1.787 0 0 0 356.822 34.857 A 1.606 1.606 0 0 0 356.153 34.717 Q 355.469 34.717 354.981 35.23 A 1.68 1.68 0 0 0 354.493 36.426 A 1.596 1.596 0 0 0 354.966 37.582 A 1.96 1.96 0 0 0 354.981 37.598 Q 355.469 38.086 356.153 38.086 A 1.68 1.68 0 0 0 357.349 37.598 A 1.66 1.66 0 0 0 357.734 37.061 A 1.566 1.566 0 0 0 357.862 36.426 Z"/>
    </g>
</svg>